<svg xmlns="http://www.w3.org/2000/svg" xmlns:xlink="http://www.w3.org/1999/xlink" viewBox="0 0 313.2753 133.0006">
  <defs>
    <style>
      .cls-1 {
        fill: none;
      }

      .cls-2 {
        clip-path: url(#clip-path);
      }

      .cls-3 {
        fill-rule: evenodd;
      }
    </style>
    <clipPath id="clip-path" transform="translate(-7.7247)">
      <rect class="cls-1" y="0.0005" width="321" height="133"/>
    </clipPath>
  </defs>
  <title>Black</title>
  <g id="Layer_2" data-name="Layer 2">
    <g id="Layer_1-2" data-name="Layer 1">
      <g class="cls-2">
        <path d="M28.8252,25.6548a4,4,0,0,0-1.6074.3506,3.8084,3.8084,0,0,0-1.1631.8066,3.9444,3.9444,0,0,0-.751,1.0781,3.8677,3.8677,0,0,0,.1494,3.587,4.01,4.01,0,0,0,.3472.5088,3.9519,3.9519,0,0,0,.2881.3183,3.6644,3.6644,0,0,0,.354.3086,4,4,0,0,0,.8457.4981,3.8378,3.8378,0,0,0,1.4717.3154,3.9588,3.9588,0,0,0,2.44-.8018A3.8718,3.8718,0,0,0,32.72,29.58a3.9381,3.9381,0,0,0-.25-1.4033,3.8641,3.8641,0,0,0-.7158-1.2012,3.9355,3.9355,0,0,0-1.23-.9326,3.8656,3.8656,0,0,0-1.5571-.3858C28.92,25.6558,28.8726,25.6548,28.8252,25.6548Zm.1772-17.1826c.2989.0029.5972.0107.8955.0254.6841.0332,1.3672.1015,2.045.2021a21.15,21.15,0,1,1-5.6011-.081c.7144-.085,1.4321-.13,2.1519-.1446C28.6631,8.4722,28.833,8.4712,29.0024,8.4722Z" transform="translate(-7.7247)"/>
        <path class="cls-3" d="M34.604,7.4175q1.043-.6621,2.12-1.2666A47.9474,47.9474,0,0,1,54.8408.3023Q56.4089.125,57.9854.0513C58.56.0249,59.1343.01,59.709.0015q.4322-.003.8642,0c.77.0078,1.5386.0293,2.3072.0722a47.5136,47.5136,0,0,1,18.165,4.7315q1.0943.5332,2.1607,1.1211c.1743.0957.3652.2021.5385.3008.24.1367.479.2744.7129.4238q.468.2988.9058.6416A11.6507,11.6507,0,0,1,74.3872,27.478a11.4309,11.4309,0,0,1-1.5317-.6494c-.2671-.1367-.5254-.2881-.7867-.4345l-.2768-.1524a25.2324,25.2324,0,0,0-2.3814-1.1338,24.1973,24.1973,0,0,0-12.6738-1.5674,24.6094,24.6094,0,0,0-5.4736,1.4414,22.8452,22.8452,0,0,0-12.93-16.24A22.7657,22.7657,0,0,0,34.604,7.4175ZM26.9277,32.8267a3.7955,3.7955,0,1,1,5.1914-1.3887A3.7927,3.7927,0,0,1,26.9277,32.8267Zm1.897-7.502a4.3631,4.3631,0,0,0-1.7436.3789,4.1623,4.1623,0,0,0-1.2623.876,4.2727,4.2727,0,0,0-.8144,1.17,4.2392,4.2392,0,0,0,.5386,4.4444,4.2857,4.2857,0,0,0,.3125.3457,3.7821,3.7821,0,0,0,.3842.3339,4.3371,4.3371,0,0,0,.9175.5411,4.1621,4.1621,0,0,0,1.5967.3418,4.2972,4.2972,0,0,0,2.6475-.87,4.2111,4.2111,0,0,0,1.1245-1.3105,4.1476,4.1476,0,0,0,.32-.7305,4.1974,4.1974,0,0,0,.2051-1.2617,4.28,4.28,0,0,0-.2715-1.5244,4.2189,4.2189,0,0,0-.7764-1.3018,4.2759,4.2759,0,0,0-1.3349-1.0117,4.1917,4.1917,0,0,0-1.689-.4189C28.9277,25.3257,28.876,25.3247,28.8247,25.3247Zm-16.3,20.2725a22.91,22.91,0,0,0,23.28,5.7148c.0952-.03.19-.0615.2851-.0928q.1392.9171.3477,1.82a24.588,24.588,0,0,0,1.6011,4.71,24.1388,24.1388,0,0,0,6.7524,8.7158q.8972.7281,1.8613,1.3672c.35.2325.7071.4551,1.0679.6709l.1357.08.167.0967.4732.29c.1528.1045.3081.2051.4585.3125.3008.2149.5913.4453.8706.6875A11.6542,11.6542,0,0,1,36.7793,89.0816c-.335-.1739-.6611-.3672-.9858-.56q-.5231-.3105-1.0391-.6348A47.6534,47.6534,0,0,1,12.4888,46.9136Q12.4975,46.2558,12.5249,45.5972Z" transform="translate(-7.7247)"/>
        <path d="M87.7275,107.3452a3.9987,3.9987,0,0,0,1.607-.35,3.81,3.81,0,0,0,1.1631-.8066,3.9357,3.9357,0,0,0,.75-1.0781,3.9079,3.9079,0,0,0-.4965-4.0967,3.7736,3.7736,0,0,0-.2876-.3174,3.4792,3.4792,0,0,0-.3535-.3086,3.9668,3.9668,0,0,0-.8462-.4981,3.8362,3.8362,0,0,0-1.4717-.3154,3.9584,3.9584,0,0,0-2.44.8018,3.8643,3.8643,0,0,0-1.0366,1.208,3.79,3.79,0,0,0-.2949.6728,3.8391,3.8391,0,0,0-.189,1.1631,3.9182,3.9182,0,0,0,.2505,1.4043,3.8787,3.8787,0,0,0,.7149,1.2,3.9459,3.9459,0,0,0,1.23.9326,3.8658,3.8658,0,0,0,1.5567.3858C87.6323,107.3452,87.68,107.3452,87.7275,107.3452Zm-.1782,17.1836c-.2983-.0029-.5972-.0107-.8945-.0254-.6841-.0342-1.3672-.1015-2.0449-.2021a21.1765,21.1765,0,1,1,5.6005.08c-.7143.0849-1.4321.1308-2.1513.1455C87.8892,124.5288,87.72,124.53,87.5493,124.5288Z" transform="translate(-7.7247)"/>
        <path class="cls-3" d="M81.9487,125.5835q-1.0437.6606-2.12,1.2666a47.9817,47.9817,0,0,1-18.1172,5.8486q-1.5673.1773-3.1445.25c-.5742.0274-1.1484.042-1.7231.05-.2886.002-.5762.003-.8643.001-.77-.0078-1.5391-.03-2.3076-.0732a47.4651,47.4651,0,0,1-18.1646-4.7305q-1.095-.5332-2.1611-1.1211c-.1743-.0957-.3652-.2031-.5381-.3008-.2412-.1377-.479-.2744-.7134-.4248q-.468-.2973-.9057-.6406a11.6526,11.6526,0,0,1,12.5078-19.5361c.2676.1367.5254.2871.7866.4345q.1384.0762.2773.1524a25.1686,25.1686,0,0,0,2.3809,1.1328,24.2085,24.2085,0,0,0,12.6743,1.5684,24.6621,24.6621,0,0,0,5.4732-1.4414,22.889,22.889,0,0,0,16.66,17.5644Zm7.6758-25.4092a3.7954,3.7954,0,1,1-5.1914,1.3887A3.7926,3.7926,0,0,1,89.6245,100.1743Zm-1.897,7.502a4.3444,4.3444,0,0,0,1.7437-.38,4.1425,4.1425,0,0,0,1.2622-.875,4.2629,4.2629,0,0,0,.8145-1.1709,4.2,4.2,0,0,0,.3466-1.1133,4.2483,4.2483,0,0,0-.5088-2.7783,4.1223,4.1223,0,0,0-.6884-.8975,3.9812,3.9812,0,0,0-.3843-.3349,4.344,4.344,0,0,0-.918-.54,4.1813,4.1813,0,0,0-1.5967-.3427,4.2978,4.2978,0,0,0-2.6474.8711,4.2127,4.2127,0,0,0-1.1245,1.31,4.1541,4.1541,0,0,0-.32.73,4.2252,4.2252,0,0,0-.2055,1.2627,4.2826,4.2826,0,0,0,.2724,1.5234,4.187,4.187,0,0,0,.7764,1.3028,4.28,4.28,0,0,0,1.335,1.0117,4.17,4.17,0,0,0,1.6889.418Q87.65,107.6762,87.7275,107.6763Zm16.3-20.2735A22.9175,22.9175,0,0,0,80.7471,81.688c-.0952.0312-.1905.0615-.2847.0937q-.14-.9169-.3481-1.8212a24.6515,24.6515,0,0,0-1.6011-4.71,24.3362,24.3362,0,0,0-2.2725-3.9395,24.0818,24.0818,0,0,0-4.48-4.7763q-.8979-.7266-1.8613-1.3672c-.3506-.2324-.7075-.4541-1.0684-.67l-.1357-.08-.167-.0977-.4731-.289c-.1529-.1045-.3081-.2051-.4585-.3125q-.4512-.3237-.8706-.6885A11.6548,11.6548,0,0,1,79.7729,43.9185c.335.1748.6612.3681.9854.56q.5244.3105,1.04.6348a47.6471,47.6471,0,0,1,22.2656,40.9736Q104.0546,86.7452,104.0278,87.4028Z" transform="translate(-7.7247)"/>
        <path d="M144.1421,17.7876a4.2741,4.2741,0,0,0-1.6,3.4775,3.93,3.93,0,0,0,1.9546,3.4424q1.9548,1.2789,9.03,3.0166,7.0737,1.74,10.9838,5.2168,3.91,3.4791,3.91,10.1514a13.39,13.39,0,0,1-5.0122,10.8252Q158.396,58.07,150.2207,58.07q-11.8023,0-21.2578-8.73l6.6118-8.0918q8.034,7.0268,14.8594,7.0263a7.8073,7.8073,0,0,0,4.7988-1.3134,4.2119,4.2119,0,0,0,1.7412-3.5489,4.1349,4.1349,0,0,0-1.8476-3.5488q-1.8493-1.314-7.3233-2.6621-8.6741-2.0581-12.6909-5.3594T131.0957,21.478q0-7.062,5.083-10.8955A20.479,20.479,0,0,1,148.87,6.7485a30.5722,30.5722,0,0,1,9.9536,1.7041,26.6756,26.6756,0,0,1,8.6739,4.8272L161.88,21.3716a21.9048,21.9048,0,0,0-13.3653-4.8975A6.6877,6.6877,0,0,0,144.1421,17.7876Z" transform="translate(-7.7247)"/>
        <path d="M248.8374,46.0386a8.6246,8.6246,0,0,0,6.47,2.9453,8.0871,8.0871,0,0,0,6.292-2.9453,11.07,11.07,0,0,0,2.5952-7.5957A11.6147,11.6147,0,0,0,261.6,30.7056a8.0139,8.0139,0,0,0-6.3628-3.0879,8.282,8.282,0,0,0-6.47,3.123,11.4149,11.4149,0,0,0-2.7021,7.7383A10.59,10.59,0,0,0,248.8374,46.0386ZM240.6616,52.32a20.1822,20.1822,0,0,1-5.332-14.2666q0-8.518,5.1894-13.9492a16.3034,16.3034,0,0,1,12.1578-5.43,14.6036,14.6036,0,0,1,11.3754,4.8975V4.8325h10.6646v52.669H264.0522v-5.04a13.8446,13.8446,0,0,1-11.269,5.6084Q245.9936,58.07,240.6616,52.32Z" transform="translate(-7.7247)"/>
        <path class="cls-3" d="M290.6152,62.7525c.0567.0009.1133.0019.169.0019a3.114,3.114,0,0,0,2.56-1.4551,5.1334,5.1334,0,0,0,1.0664-3.0879q0-1.6332-14.7885-38.8984h11.3755l9.3134,23.7793,9.314-23.7793H321L303.2261,64.3159a12.6764,12.6764,0,0,1-4.87,6.0694,13.147,13.147,0,0,1-7.3588,2.165q-.1913,0-.3824-.0059Z" transform="translate(-7.7247)"/>
        <path class="cls-3" d="M185.3486,19.313h12.0982a7.8746,7.8746,0,0,1,7.88,7.8672V40.1109q0,8.8021,6.47,8.8017a7.6467,7.6467,0,0,0,5.5459-2.3066q2.346-2.3071,2.3462-6.708V19.313h10.7353V57.5015H219.6885v-5.04Q215.7071,58.07,209.415,58.07A14.9752,14.9752,0,0,1,198.8574,54.13q-4.2663-3.9405-4.2656-11.6768V30.48a3.5042,3.5042,0,0,0-3.5068-3.501h-5.7364V44.0864a4.905,4.905,0,0,0,1.1382,3.4424,3.5428,3.5428,0,0,0,2.7012,1.2422c.0791,0,.1587-.0019.2373-.0049v9.1944A13.7058,13.7058,0,0,1,178.417,54.45q-3.8042-3.621-3.8037-9.8672V26.979h-4.479V19.313h4.479V7.8853h10.7353Z" transform="translate(-7.7247)"/>
        <polygon points="155.164 75.651 166.433 75.651 166.433 126.065 155.164 126.065 155.164 106.232 135.082 106.232 135.082 126.065 123.813 126.065 123.813 75.651 135.082 75.651 135.082 96.711 155.164 96.711 155.164 75.651"/>
        <path d="M210.5664,108.1792V87.2632h10.9082V126.065H210.5664v-5.12q-4.0452,5.6968-10.438,5.6973a15.2145,15.2145,0,0,1-10.7275-4.0029q-4.3353-4.002-4.334-11.8643V87.2632h10.9077V108.395q0,8.9429,6.5737,8.9434a7.7673,7.7673,0,0,0,5.6343-2.3438Q210.5667,112.6509,210.5664,108.1792Z" transform="translate(-7.7247)"/>
        <path d="M245.0605,114.4175a8.2184,8.2184,0,0,0,6.3931,2.9932,8.7642,8.7642,0,0,0,6.5737-2.9932,10.7555,10.7555,0,0,0,2.8169-7.6807A11.594,11.594,0,0,0,258.1,98.8745a8.4149,8.4149,0,0,0-6.5737-3.1728,8.1393,8.1393,0,0,0-6.4654,3.1377,11.7988,11.7988,0,0,0-2.6367,7.8613A11.2426,11.2426,0,0,0,245.0605,114.4175ZM266.48,92.1314q5.2734,5.5181,5.2734,14.1718A20.5116,20.5116,0,0,1,266.335,120.8q-5.4185,5.8418-12.3174,5.8418a14.07,14.07,0,0,1-11.4492-5.6973v5.12h-10.836V72.55h10.836V91.59a14.8386,14.8386,0,0,1,11.5581-4.9765A16.5659,16.5659,0,0,1,266.48,92.1314Z" transform="translate(-7.7247)"/>
        <path d="M278.76,120.2954a6.2846,6.2846,0,1,1,1.8418,4.5078A6.1267,6.1267,0,0,1,278.76,120.2954Z" transform="translate(-7.7247)"/>
      </g>
    </g>
  </g>
</svg>
