<svg xmlns="http://www.w3.org/2000/svg" xmlns:xlink="http://www.w3.org/1999/xlink" viewBox="0 0 221.7967 302.5442">
  <defs>
    <style>
      .cls-1 {
        fill: none;
      }

      .cls-2 {
        clip-path: url(#clip-path);
      }

      .cls-3 {
        fill: #057efb;
      }

      .cls-4 {
        fill: #fff;
        fill-rule: evenodd;
      }

      .cls-5 {
        fill: #043472;
      }
    </style>
    <clipPath id="clip-path" transform="translate(-29.6033 -39.7286)">
      <rect class="cls-1" width="281" height="382.0005"/>
    </clipPath>
  </defs>
  <title>Plain</title>
  <g id="Layer_2" data-name="Layer 2">
    <g id="Layer_1-2" data-name="Layer 1">
      <g class="cls-2">
        <path class="cls-3" d="M149.3325,39.7305c1.7535.019,3.5054.0688,5.2569.1675a108.1641,108.1641,0,0,1,41.3872,10.7856Q198.4705,51.9,200.9,53.2393c.397.2187.8325.4629,1.2266.687.5488.312,1.0913.6255,1.625.9663q1.0656.6811,2.064,1.4609a26.5624,26.5624,0,0,1-28.4986,44.5435c-.6089-.3125-1.1977-.6553-1.792-.9907q-.3156-.1751-.6318-.3482a57.517,57.517,0,0,0-5.4248-2.5835,55.1375,55.1375,0,0,0-28.877-3.5757,56.123,56.123,0,0,0-17.7422,5.67,55.2764,55.2764,0,0,0-28.5078,61.5894,56.1,56.1,0,0,0,3.649,10.7378,55.4928,55.4928,0,0,0,5.1762,8.9829,54.8977,54.8977,0,0,0,10.208,10.8887q2.0449,1.6581,4.24,3.1172c.7988.5312,1.6113,1.0371,2.4336,1.5293l.31.1836.38.2207,1.0776.66c.3492.2383.7027.4668,1.0455.7119q1.029.7368,1.9834,1.5694A26.5635,26.5635,0,0,1,95.12,242.8325c-.7646-.3974-1.5068-.8369-2.247-1.2773q-1.1925-.7076-2.3667-1.4453A109.0967,109.0967,0,0,1,78.834,231.646,108.0247,108.0247,0,0,1,53.17,200.4927,108.6455,108.6455,0,0,1,41.482,128.9663a107.8388,107.8388,0,0,1,5.92-20.6987,109.4271,109.4271,0,0,1,13.3432-24.125,108.4109,108.4109,0,0,1,51.46-38.1958,109.31,109.31,0,0,1,24.0659-5.5293q3.5721-.4036,7.1646-.5723c1.3086-.06,2.6176-.0942,3.9272-.1118Q148.3478,39.726,149.3325,39.7305Z" transform="translate(-29.6033 -39.7286)"/>
        <path class="cls-4" d="M62.9668,131.3682a28.0512,28.0512,0,1,1,38.3452-10.2647A28.0439,28.0439,0,0,1,62.9668,131.3682Z" transform="translate(-29.6033 -39.7286)"/>
        <path class="cls-5" d="M76.9956,98.3477a8.99,8.99,0,0,0-3.6089.7851,8.6028,8.6028,0,0,0-2.6137,1.814,8.863,8.863,0,0,0-1.6856,2.4238,8.6888,8.6888,0,0,0,.3355,8.062A8.5062,8.5062,0,0,0,70.85,113.292a8.0119,8.0119,0,0,0,.795.6929,8.93,8.93,0,0,0,1.8994,1.1191,8.62,8.62,0,0,0,3.3051.71,8.8974,8.8974,0,0,0,5.481-1.8037,8.7069,8.7069,0,0,0,3.4141-6.8423,8.8458,8.8458,0,0,0-.5625-3.1563,8.7078,8.7078,0,0,0-1.607-2.6972A8.8341,8.8341,0,0,0,80.8115,99.22a8.6521,8.6521,0,0,0-3.4965-.8676C77.2085,98.3486,77.1026,98.3472,76.9956,98.3477Zm.399-38.6211c.6713.0063,1.3408.0239,2.0107.0576q2.3057.1157,4.5933.4551a47.5364,47.5364,0,1,1-12.5806-.1812c1.605-.1909,3.2173-.2949,4.8335-.3266Q76.8235,59.7242,77.3946,59.7266Z" transform="translate(-29.6033 -39.7286)"/>
        <path class="cls-3" d="M174.9776,136.2109c1.12.084,1.4038.085,2.5166.2481a26.6079,26.6079,0,0,1,6.09,1.6523q1.1733.4725,2.2979,1.0567c.5747.2988,1.0839.5932,1.6323.914.4385.2564.7793.459,1.2148.7212q2.3716,1.43,4.6685,2.9766A108.395,108.395,0,0,1,232.2832,276.896a109.9836,109.9836,0,0,1-8.4985,15.8389A108.6226,108.6226,0,0,1,84.4131,331.0161q-2.4975-1.2363-4.93-2.6c-.7466-.418-1.4941-.8379-2.2158-1.2969q-1.0656-.6825-2.0645-1.4589a26.5619,26.5619,0,0,1,28.4629-44.5665c.6187.3165,1.2178.6641,1.8223,1.0059.2065.1152.4131.2285.62.3418.5254.2832,1.0537.5625,1.5874.8311q2.0434,1.0282,4.1665,1.8857a55.112,55.112,0,0,0,27.2207,3.6172,56.1232,56.1232,0,0,0,17.87-5.2442,55.1147,55.1147,0,0,0,24.8995-24.2792,56.3805,56.3805,0,0,0,2.727-6.11,54.4516,54.4516,0,0,0,2.9483-11.5137,55.7533,55.7533,0,0,0-10.0835-40.5517A54.9618,54.9618,0,0,0,167.08,190.2935q-2.0691-1.6377-4.289-3.0694c-.8292-.5361-1.6739-1.0459-2.5274-1.542l-1.0781-.6611c-.3482-.2378-.7027-.4668-1.0454-.7119q-1.0276-.7368-1.9829-1.5689a26.5535,26.5535,0,0,1,13.7724-46.3051q1.254-.1766,2.5191-.232c.4209-.019.8427-.0175,1.2646-.0258Q174.345,136.1933,174.9776,136.2109Z" transform="translate(-29.6033 -39.7286)"/>
        <path class="cls-4" d="M218.0352,250.6314A28.0511,28.0511,0,1,1,179.69,260.897,28.0451,28.0451,0,0,1,218.0352,250.6314Z" transform="translate(-29.6033 -39.7286)"/>
        <path class="cls-5" d="M203.9927,266.1851a8.9221,8.9221,0,0,0-3.5938.7783,8.804,8.804,0,0,0-2.686,1.8789,8.7946,8.7946,0,0,0-2.414,5.1914,8.7223,8.7223,0,0,0,5.2514,8.9121,8.5871,8.5871,0,0,0,3.2959.7061A8.7359,8.7359,0,0,0,212.4,277.35a8.5816,8.5816,0,0,0,.3394-2.541,8.8433,8.8433,0,0,0-.5762-2.9981,8.7249,8.7249,0,0,0-1.5918-2.6582,8.8658,8.8658,0,0,0-2.7637-2.0957,8.648,8.648,0,0,0-3.4975-.8671C204.2046,266.186,204.0987,266.1851,203.9927,266.1851Zm.3984-38.6211a48.2865,48.2865,0,0,1,6.89.5556,47.5373,47.5373,0,1,1-12.8667-.2236c1.6059-.19,3.2187-.2959,4.8345-.3271Q203.82,227.5616,204.3911,227.564Z" transform="translate(-29.6033 -39.7286)"/>
      </g>
    </g>
  </g>
</svg>
