<svg xmlns="http://www.w3.org/2000/svg" xmlns:xlink="http://www.w3.org/1999/xlink" viewBox="0 0 355.2526 150.4803">
  <defs>
    <style>
      .cls-1 {
        fill: none;
      }

      .cls-2 {
        clip-path: url(#clip-path);
      }

      .cls-3 {
        fill: #057efb;
      }

      .cls-4 {
        fill: #fff;
      }

      .cls-4, .cls-6 {
        fill-rule: evenodd;
      }

      .cls-5, .cls-6 {
        fill: #043472;
      }
    </style>
    <clipPath id="clip-path" transform="translate(-14.7474 -19.7602)">
      <rect class="cls-1" width="370" height="190"/>
    </clipPath>
  </defs>
  <title>Text Left</title>
  <g id="Layer_2" data-name="Layer 2">
    <g id="Layer_1-2" data-name="Layer 1">
      <g class="cls-2">
        <path class="cls-3" d="M74.3945,19.7607c.8731.0093,1.7461.0347,2.6192.083a53.9932,53.9932,0,0,1,20.6181,5.3648q1.2423.6042,2.4532,1.2715c.1972.1089.414.23.61.3413.2744.1553.544.312.81.4814.3545.2251.6972.4683,1.0283.7261A13.2192,13.2192,0,0,1,88.3359,50.1836c-.3037-.1548-.5966-.3257-.8935-.4927-.1045-.0576-.209-.1157-.3135-.1723a28.6046,28.6046,0,0,0-2.7031-1.2852A27.4954,27.4954,0,0,0,70.04,46.4546a28.0142,28.0142,0,0,0-8.8388,2.82,27.6568,27.6568,0,0,0-13.3985,15.461A27.2115,27.2115,0,0,0,46.59,69.6592a27.5705,27.5705,0,0,0,.4092,10.249A27.901,27.901,0,0,0,48.8164,85.25a27.5857,27.5857,0,0,0,2.5791,4.4673,27.2766,27.2766,0,0,0,5.0859,5.4165q1.0182.8239,2.1124,1.55c.3974.2642.8027.5161,1.2119.7607l.1543.0909.1894.1093.5371.3291c.1739.1182.3506.232.52.354q.5127.367.9883.78A13.2214,13.2214,0,0,1,47.3867,120.78c-.3808-.1973-.75-.416-1.1191-.6348q-.5948-.3529-1.18-.72a54.3434,54.3434,0,0,1-5.8145-4.209A53.8682,53.8682,0,0,1,23.6152,53.8506a54.3784,54.3784,0,0,1,6.6475-12A53.8117,53.8117,0,0,1,47.3232,26.7354a54.4581,54.4581,0,0,1,20.5645-6.6329q1.78-.2007,3.5693-.2841c.6524-.03,1.3037-.0474,1.9561-.0562Q73.9038,19.7586,74.3945,19.7607Z" transform="translate(-14.7474 -19.7602)"/>
        <path class="cls-4" d="M31.3691,65.34a13.9577,13.9577,0,1,1,19.1026-5.1054A13.9366,13.9366,0,0,1,31.3691,65.34Z" transform="translate(-14.7474 -19.7602)"/>
        <path class="cls-5" d="M38.3574,48.9165a4.468,4.468,0,0,0-1.7978.39,4.2747,4.2747,0,0,0-1.3018.9024,4.4049,4.4049,0,0,0-.84,1.2056,4.3182,4.3182,0,0,0,.167,4.01,4.4666,4.4666,0,0,0,.3886.5689,4.2805,4.2805,0,0,0,.3223.3554,4.02,4.02,0,0,0,.3955.3457,4.5376,4.5376,0,0,0,.9463.5567,4.3072,4.3072,0,0,0,1.6475.3525,4.4287,4.4287,0,0,0,2.7294-.8974,4.3555,4.3555,0,0,0,.6211-6.314A4.41,4.41,0,0,0,40.2588,49.35a4.3253,4.3253,0,0,0-1.7422-.4316C38.4639,48.9165,38.4111,48.9155,38.3574,48.9165Zm.1992-19.21c.334.0039.668.0122,1.002.0293q1.1484.057,2.2881.226a23.7019,23.7019,0,1,1-6.2676-.09c.8-.0947,1.6025-.1465,2.4082-.1616C38.1768,29.7061,38.3672,29.7051,38.5566,29.7061Z" transform="translate(-14.7474 -19.7602)"/>
        <path class="cls-3" d="M87.1709,67.749c.5576.041.6992.042,1.2529.1231a13.273,13.273,0,0,1,3.0352.8217q.5831.236,1.1435.5259c.2862.1485.54.2949.8135.4541.2178.128.3877.2285.6045.3584q1.1822.7119,2.3262,1.481a53.8568,53.8568,0,0,1,19.373,66.21,54.8043,54.8043,0,0,1-4.2343,7.8779,53.8412,53.8412,0,0,1-20.54,18.5908,54.1456,54.1456,0,0,1-48.8926.45q-1.2437-.6145-2.456-1.2925c-.3711-.208-.7442-.417-1.1035-.6455q-.5318-.3384-1.0284-.7256a13.2192,13.2192,0,0,1,14.18-22.1665c.3086.1573.6065.3306.9073.5.1035.0567.206.1138.3095.17.2617.1412.5254.28.791.4131q1.0182.5113,2.0752.9385a27.4784,27.4784,0,0,0,13.5616,1.7983,27.9778,27.9778,0,0,0,8.9013-2.6079,27.4429,27.4429,0,0,0,12.4053-12.0761,27.9085,27.9085,0,0,0,1.3584-3.0391,27.0294,27.0294,0,0,0,1.4688-5.7266A27.5554,27.5554,0,0,0,83.2363,94.6479q-1.0312-.8129-2.1367-1.5258c-.4131-.2666-.834-.52-1.26-.7676l-.5371-.3291c-.1728-.1172-.35-.2315-.52-.354q-.5127-.3656-.9883-.7793A13.2082,13.2082,0,0,1,84.6553,67.86q.6255-.0871,1.2549-.1148c.21-.01.4209-.0093.63-.0132C86.751,67.7378,86.96,67.7432,87.1709,67.749Z" transform="translate(-14.7474 -19.7602)"/>
        <path class="cls-4" d="M108.6211,124.66a13.9578,13.9578,0,1,1-19.1035,5.1054A13.9364,13.9364,0,0,1,108.6211,124.66Z" transform="translate(-14.7474 -19.7602)"/>
        <path class="cls-5" d="M101.625,132.3955a4.4615,4.4615,0,0,0-1.791.3872,4.3976,4.3976,0,0,0-1.3369.9346,4.3656,4.3656,0,0,0-1.2032,2.582,4.342,4.342,0,0,0,2.6163,4.4331,4.2937,4.2937,0,0,0,1.6425.3506,4.3511,4.3511,0,0,0,4.2608-3.1338,4.2257,4.2257,0,0,0,.1689-1.2641,4.3275,4.3275,0,0,0-2.456-3.856,4.33,4.33,0,0,0-1.7432-.4316C101.7305,132.396,101.6777,132.3955,101.625,132.3955Zm.1992-19.2095a24.0635,24.0635,0,0,1,3.4326.2769,23.7053,23.7053,0,1,1-6.41-.1118c.7988-.0952,1.6025-.147,2.4082-.1626Q101.539,113.1848,101.8242,113.186Z" transform="translate(-14.7474 -19.7602)"/>
        <path class="cls-5" d="M169.252,39.93a4.8485,4.8485,0,0,0-1.8165,3.9448,4.4547,4.4547,0,0,0,2.22,3.9043q2.2192,1.4487,10.249,3.42t12.4678,5.9165q4.4385,3.9448,4.4375,11.5112a15.177,15.177,0,0,1-5.6885,12.2754q-5.69,4.7088-14.97,4.7085-13.3961,0-24.13-9.9l7.5058-9.1767q9.1187,7.9688,16.8663,7.9692a8.8709,8.8709,0,0,0,5.4472-1.4888,4.7778,4.7778,0,0,0,1.9776-4.0249,4.6875,4.6875,0,0,0-2.0987-4.0249q-2.0991-1.49-8.3115-3.019-9.8466-2.3336-14.4062-6.0767t-4.5586-11.7524q0-8.0091,5.7695-12.3564t14.4053-4.3467a34.734,34.734,0,0,1,11.2978,1.9316,30.2882,30.2882,0,0,1,9.8457,5.4741l-6.375,9.1763q-7.3448-5.5547-15.1719-5.5542A7.5982,7.5982,0,0,0,169.252,39.93Z" transform="translate(-14.7474 -19.7602)"/>
        <path class="cls-5" d="M288.09,71.9678a9.791,9.791,0,0,0,7.3438,3.3408,9.1815,9.1815,0,0,0,7.1416-3.3408,12.5408,12.5408,0,0,0,2.9453-8.6123,13.1624,13.1624,0,0,0-2.9453-8.7749,9.0983,9.0983,0,0,0-7.2227-3.5015,9.4032,9.4032,0,0,0-7.3437,3.542,12.9328,12.9328,0,0,0-3.0664,8.7739A11.9962,11.9962,0,0,0,288.09,71.9678Zm-9.2812,7.1235a22.8808,22.8808,0,0,1-6.0527-16.1792q0-9.6591,5.8916-15.8174a18.512,18.512,0,0,1,13.8-6.1582,16.5854,16.5854,0,0,1,12.9121,5.5542V25.24h12.1045V84.9683H305.3594V79.2529a15.7212,15.7212,0,0,1-12.791,6.3584Q284.8619,85.6113,278.8086,79.0913Z" transform="translate(-14.7474 -19.7602)"/>
        <path class="cls-6" d="M335.51,90.9219c.0644.0014.1289.0034.1923.0034a3.5312,3.5312,0,0,0,2.9053-1.6509,5.822,5.822,0,0,0,1.211-3.5015q0-1.8515-16.7862-44.1118h12.9121l10.5723,26.9663,10.5713-26.9663H370L349.8242,92.6958a14.375,14.375,0,0,1-5.5273,6.8823,14.9279,14.9279,0,0,1-8.3526,2.4556c-.1455,0-.29-.0025-.4345-.0068Z" transform="translate(-14.7474 -19.7602)"/>
        <path class="cls-6" d="M216.0254,41.6611h13.7314a8.9325,8.9325,0,0,1,8.9444,8.9219V65.2466q0,9.9822,7.3437,9.9809a8.6843,8.6843,0,0,0,6.2949-2.6157q2.6631-2.6154,2.6631-7.6069V41.6611h12.1856V84.9683H255.0029V79.2529q-4.52,6.36-11.6611,6.3584a17.004,17.004,0,0,1-11.9844-4.4673q-4.8413-4.467-4.8418-13.2412V54.3247a3.976,3.976,0,0,0-3.98-3.97h-6.5107v19.4a5.5584,5.5584,0,0,0,1.291,3.9038,4.0237,4.0237,0,0,0,3.0664,1.4092c.09,0,.18-.002.2686-.0049V85.4883a15.5834,15.5834,0,0,1-12.4942-3.982q-4.3183-4.1052-4.3183-11.1884V50.3545h-5.084V41.6611h5.084v-12.96h12.1865Z" transform="translate(-14.7474 -19.7602)"/>
        <polygon class="cls-3" points="175.963 85.79 188.754 85.79 188.754 142.961 175.963 142.961 175.963 120.468 153.168 120.468 153.168 142.961 140.377 142.961 140.377 85.79 153.168 85.79 153.168 109.672 175.963 109.672 175.963 85.79"/>
        <path class="cls-3" d="M244.8271,142.437V118.7183H257.209v44.0024H244.8271v-5.8071q-4.5907,6.4614-11.8476,6.4614a17.2814,17.2814,0,0,1-12.1768-4.5391q-4.92-4.5395-4.92-13.4546v-26.663h12.3809v23.9638q0,10.142,7.4619,10.1421a8.8219,8.8219,0,0,0,6.3955-2.6582Q244.8282,147.508,244.8271,142.437Z" transform="translate(-14.7474 -19.7602)"/>
        <path class="cls-3" d="M283.9805,149.5117a9.3312,9.3312,0,0,0,7.2568,3.3945,9.9513,9.9513,0,0,0,7.4619-3.3945,12.19,12.19,0,0,0,3.1973-8.71,13.138,13.138,0,0,0-3.1152-8.9151,9.5544,9.5544,0,0,0-7.462-3.5986,9.2422,9.2422,0,0,0-7.3388,3.5576,13.3759,13.3759,0,0,0-2.9932,8.9151A12.7439,12.7439,0,0,0,283.9805,149.5117Zm24.3125-25.2729q5.9853,6.2571,5.9853,16.0717a23.2461,23.2461,0,0,1-6.1494,16.44q-6.1509,6.6248-13.9814,6.625a15.9756,15.9756,0,0,1-12.9961-6.4614v5.8071H268.8525v-60.687h12.2989v21.5918a16.8507,16.8507,0,0,1,13.12-5.6436A18.8094,18.8094,0,0,1,308.293,124.2388Z" transform="translate(-14.7474 -19.7602)"/>
        <path class="cls-3" d="M322.2324,156.1777a7.1315,7.1315,0,1,1,2.0908,5.1114A6.9413,6.9413,0,0,1,322.2324,156.1777Z" transform="translate(-14.7474 -19.7602)"/>
      </g>
    </g>
  </g>
</svg>
