<svg xmlns="http://www.w3.org/2000/svg" xmlns:xlink="http://www.w3.org/1999/xlink" viewBox="0 0 249 157.9487">
  <defs>
    <style>
      .cls-1 {
        fill: none;
      }

      .cls-2 {
        clip-path: url(#clip-path);
      }

      .cls-3 {
        fill: #057efb;
      }

      .cls-4 {
        fill: #fff;
      }

      .cls-4, .cls-6 {
        fill-rule: evenodd;
      }

      .cls-5, .cls-6 {
        fill: #043472;
      }
    </style>
    <clipPath id="clip-path" transform="translate(0 -12.0513)">
      <rect class="cls-1" width="249" height="170"/>
    </clipPath>
  </defs>
  <title>Text Bottom</title>
  <g id="Layer_2" data-name="Layer 2">
    <g id="Layer_1-2" data-name="Layer 1">
      <g class="cls-2">
        <path class="cls-3" d="M127.1719,12.0518c.53.0058,1.0605.0205,1.59.0507a32.6543,32.6543,0,0,1,12.52,3.272q.7545.3684,1.4893.7754c.12.0659.2519.14.3711.208.166.0947.33.19.4912.293.2148.1377.4238.2856.624.4433a8.0494,8.0494,0,0,1-8.6211,13.5118c-.1836-.0953-.3613-.1988-.542-.3008l-.19-.1055a17.3122,17.3122,0,0,0-1.6416-.7832,16.6372,16.6372,0,0,0-8.7354-1.085,16.9444,16.9444,0,0,0-5.3671,1.72,16.6891,16.6891,0,0,0-7.12,7.0879,16.9113,16.9113,0,0,0-1.0156,2.3413,16.6294,16.6294,0,0,0-.7373,3.0029,16.9314,16.9314,0,0,0,2.919,12.2324,16.6411,16.6411,0,0,0,3.0878,3.3032c.4122.335.8409.6509,1.2823.9458q.3633.24.7363.4634l.0938.0557.1152.0669.3262.2007c.1054.0717.2119.1411.3154.2158q.312.2233.6006.4761A8.0482,8.0482,0,0,1,110.7715,73.66c-.2315-.12-.4561-.254-.68-.3873q-.36-.2153-.7158-.4384a33.0644,33.0644,0,0,1-3.5313-2.5674,32.7548,32.7548,0,0,1-7.7636-9.45,32.9608,32.9608,0,0,1,2.2919-35.293A32.8749,32.8749,0,0,1,123.2207,12.26q1.08-.1232,2.167-.1734c.3955-.0185.792-.0288,1.1885-.0342Q126.8735,12.0506,127.1719,12.0518Z" transform="translate(0 -12.0513)"/>
        <path class="cls-4" d="M101.0449,39.8491a8.5032,8.5032,0,1,1,11.6-3.1137A8.5205,8.5205,0,0,1,101.0449,39.8491Z" transform="translate(0 -12.0513)"/>
        <path class="cls-5" d="M105.2891,29.8325a2.7144,2.7144,0,0,0-1.0918.2383,2.59,2.59,0,0,0-.791.55,2.6492,2.6492,0,0,0-.4083,3.1807,2.65,2.65,0,0,0,.2354.3471,2.74,2.74,0,0,0,.1963.2168,2.2828,2.2828,0,0,0,.24.21,2.6855,2.6855,0,0,0,.5742.34,2.6039,2.6039,0,0,0,1,.2154,2.6879,2.6879,0,0,0,1.6582-.5469,2.65,2.65,0,0,0,.7041-.8237,2.5313,2.5313,0,0,0,.2-.459,2.6359,2.6359,0,0,0,.128-.7925,2.697,2.697,0,0,0-.169-.958,2.6509,2.6509,0,0,0-.4863-.8179,2.6906,2.6906,0,0,0-.8359-.6362,2.6189,2.6189,0,0,0-1.0577-.2627C105.3525,29.833,105.3213,29.8325,105.2891,29.8325Zm.1211-11.7153c.2021.0024.4052.0073.6074.0176.4648.0234.93.0693,1.39.1381a14.3328,14.3328,0,0,1,11.2227,8.941,14.3685,14.3685,0,0,1-1.4492,13.2978,14.3483,14.3483,0,1,1-13.5791-22.2939c.4853-.0576.9736-.0894,1.4619-.0991C105.1787,18.1172,105.2939,18.1167,105.41,18.1172Z" transform="translate(0 -12.0513)"/>
        <path class="cls-3" d="M134.93,41.3179c.3389.0258.4248.0258.7607.0757a8.0444,8.0444,0,0,1,1.8428.5c.2363.0962.4688.2032.6943.3208.1748.0909.3282.18.4942.2774.1328.0781.2363.1391.3672.2187q.7177.4336,1.4131.9029a32.9412,32.9412,0,0,1,11.7636,40.3789,33.4391,33.4391,0,0,1-2.5713,4.8042,32.7981,32.7981,0,0,1-42.1621,11.6123q-.7558-.3735-1.4912-.7881c-.2256-.127-.4521-.2539-.67-.3936-.2148-.1377-.4238-.2851-.625-.4423a8.0507,8.0507,0,0,1,7.5547-13.9678,7.9729,7.9729,0,0,1,1.0556.4492c.1875.0957.3682.2012.5518.3052l.1875.104c.1592.0859.3193.17.4805.2519q.6181.3106,1.26.5713a16.6271,16.6271,0,0,0,8.2354,1.0977,16.9239,16.9239,0,0,0,5.4053-1.5908,16.6928,16.6928,0,0,0,7.5332-7.3648,17.1232,17.1232,0,0,0,.8242-1.8535,16.5807,16.5807,0,0,0,.8926-3.4922,16.9508,16.9508,0,0,0-3.0508-12.3017,16.6887,16.6887,0,0,0-3.1358-3.2706q-.6255-.4958-1.2968-.9311c-.251-.1626-.5069-.3174-.7647-.4673l-.3262-.2007c-.1054-.0722-.2128-.1416-.3164-.2163-.208-.1484-.4072-.3076-.6-.4756a8.0527,8.0527,0,0,1,4.166-14.0459c.252-.0356.5069-.0595.7618-.0708.1279-.0053.2558-.0049.3828-.0078Z" transform="translate(0 -12.0513)"/>
        <path class="cls-4" d="M147.9551,76.0264A8.5032,8.5032,0,1,1,136.3545,79.14,8.52,8.52,0,0,1,147.9551,76.0264Z" transform="translate(0 -12.0513)"/>
        <path class="cls-5" d="M143.707,80.7441a2.6577,2.6577,0,0,0-1.8994.8057,2.6645,2.6645,0,0,0-.7305,1.5752,2.6457,2.6457,0,0,0,1.5879,2.7031,2.5743,2.5743,0,0,0,.9981.2139,2.6451,2.6451,0,0,0,2.5869-1.9107,2.5782,2.5782,0,0,0,.1025-.7709,2.68,2.68,0,0,0-.1738-.91,2.6462,2.6462,0,0,0-.4814-.8062,2.6794,2.6794,0,0,0-.836-.6362,2.6207,2.6207,0,0,0-1.0586-.2627C143.7705,80.7441,143.7383,80.7441,143.707,80.7441Zm.12-11.7153a14.5307,14.5307,0,0,1,2.085.169,14.2846,14.2846,0,0,1,3.75,1.1264,14.3794,14.3794,0,0,1,6.0342,20.9522,14.347,14.347,0,0,1-25.8711-11.481A14.3463,14.3463,0,0,1,142.02,69.1294c.4854-.0576.9737-.0894,1.4619-.0991C143.5977,69.0288,143.7119,69.0283,143.8271,69.0288Z" transform="translate(0 -12.0513)"/>
        <path class="cls-5" d="M10.4619,132.126a2.9627,2.9627,0,0,0-1.1025,2.4052,2.72,2.72,0,0,0,1.3476,2.3809,24.6456,24.6456,0,0,0,6.2237,2.0869,17.5048,17.5048,0,0,1,7.5713,3.6074q2.6952,2.4067,2.6953,7.0206a9.2739,9.2739,0,0,1-3.4551,7.4863,13.7525,13.7525,0,0,1-9.09,2.8721A21.0188,21.0188,0,0,1,0,153.9473l4.5576-5.5967q5.5371,4.86,10.2412,4.86a5.3663,5.3663,0,0,0,3.3076-.9082,2.9167,2.9167,0,0,0,1.2012-2.455,2.86,2.86,0,0,0-1.2744-2.4541,16.577,16.577,0,0,0-5.0469-1.8409q-5.9794-1.4238-8.748-3.707T1.47,134.6787a8.8911,8.8911,0,0,1,3.5039-7.5361,14.0874,14.0874,0,0,1,8.7471-2.65A21.0185,21.0185,0,0,1,20.582,125.67a18.3692,18.3692,0,0,1,5.9776,3.3389l-3.8711,5.5957a15.0672,15.0672,0,0,0-9.2129-3.3867A4.603,4.603,0,0,0,10.4619,132.126Z" transform="translate(0 -12.0513)"/>
        <path class="cls-5" d="M82.625,151.6641a5.9338,5.9338,0,0,0,4.459,2.0371,5.5654,5.5654,0,0,0,4.3369-2.0371,7.6711,7.6711,0,0,0,1.7891-5.253,8.05,8.05,0,0,0-1.7891-5.3506,5.514,5.514,0,0,0-4.3857-2.1357,5.698,5.698,0,0,0-4.459,2.16,7.9034,7.9034,0,0,0-1.8623,5.35A7.3342,7.3342,0,0,0,82.625,151.6641Zm-5.6357,4.3447a13.9878,13.9878,0,0,1-3.6748-9.8672,13.4153,13.4153,0,0,1,3.5771-9.6465,11.2181,11.2181,0,0,1,8.38-3.7558,10.0464,10.0464,0,0,1,7.84,3.3877V123.166h7.3506v36.4268H93.1113v-3.4854a9.5321,9.5321,0,0,1-7.7666,3.878A11.1269,11.1269,0,0,1,76.9893,156.0088Z" transform="translate(0 -12.0513)"/>
        <path class="cls-6" d="M111.42,163.2236c.0391.001.0781.002.1172.002a2.1443,2.1443,0,0,0,1.7637-1.0069,3.5586,3.5586,0,0,0,.7353-2.1357q0-1.1278-10.1923-26.9014h7.8408l6.4189,16.4454,6.419-16.4454h7.8408l-12.251,31.1241a8.7573,8.7573,0,0,1-3.3564,4.1972A9.04,9.04,0,0,1,111.6846,170c-.0889,0-.1768-.001-.2647-.0039Z" transform="translate(0 -12.0513)"/>
        <path class="cls-6" d="M38.8643,133.1816h8.3388a5.4366,5.4366,0,0,1,5.4317,5.44v8.9433q0,6.0864,4.459,6.0869a5.2568,5.2568,0,0,0,3.8222-1.5957,6.2314,6.2314,0,0,0,1.6172-4.6386V133.1816h7.3994v26.4112H62.5332v-3.4854a8.3372,8.3372,0,0,1-7.0811,3.878,10.299,10.299,0,0,1-7.2763-2.7247q-2.9415-2.7246-2.94-8.0752v-8.2812a2.4191,2.4191,0,0,0-2.417-2.4209H38.8643v11.8311a3.403,3.403,0,0,0,.7841,2.3808,2.4432,2.4432,0,0,0,1.8623.8594q.082,0,.1641-.0029V159.91a9.1432,9.1432,0,0,1-1.1689.0752,8.7858,8.7858,0,0,1-9.0411-9.3272V138.4834H28.3779v-5.3018h3.0869v-7.9043h7.4Z" transform="translate(0 -12.0513)"/>
        <polygon class="cls-3" points="160.372 114.097 168.14 114.097 168.14 148.963 160.372 148.963 160.372 135.247 146.53 135.247 146.53 148.963 138.763 148.963 138.763 114.097 146.53 114.097 146.53 128.662 160.372 128.662 160.372 114.097"/>
        <path class="cls-3" d="M193.2344,148.6445V134.1787h7.5185v26.8359h-7.5185v-3.5419a8.474,8.474,0,0,1-7.1953,3.9414,10.4657,10.4657,0,0,1-7.3936-2.7686q-2.9868-2.7685-2.9873-8.206V134.1787h7.5186v14.6152q0,6.1846,4.53,6.1856a5.3451,5.3451,0,0,0,3.8838-1.6221A6.33,6.33,0,0,0,193.2344,148.6445Z" transform="translate(0 -12.0513)"/>
        <path class="cls-3" d="M217.01,152.959a5.6546,5.6546,0,0,0,4.4062,2.07,6.03,6.03,0,0,0,4.53-2.07,7.4517,7.4517,0,0,0,1.9424-5.3125,8.0318,8.0318,0,0,0-1.8926-5.4365,5.7887,5.7887,0,0,0-4.53-2.1954,5.6018,5.6018,0,0,0-4.456,2.17,8.1772,8.1772,0,0,0-1.8174,5.4375A7.7911,7.7911,0,0,0,217.01,152.959Zm14.7627-15.4131a13.6318,13.6318,0,0,1,3.6347,9.8018,14.2117,14.2117,0,0,1-3.7343,10.0253,11.3078,11.3078,0,0,1-8.4893,4.0411,9.69,9.69,0,0,1-7.8926-3.9414v3.5419h-7.4678V124.0029h7.4678v13.169a10.2106,10.2106,0,0,1,7.9668-3.4414A11.4011,11.4011,0,0,1,231.7725,137.5459Z" transform="translate(0 -12.0513)"/>
        <path class="cls-3" d="M240.2363,157.0244a4.3419,4.3419,0,1,1,1.27,3.1172A4.2458,4.2458,0,0,1,240.2363,157.0244Z" transform="translate(0 -12.0513)"/>
      </g>
    </g>
  </g>
</svg>
