<svg xmlns="http://www.w3.org/2000/svg" xmlns:xlink="http://www.w3.org/1999/xlink" viewBox="0 0 260.5747 111.0002">
  <defs>
    <style>
      .cls-1 {
        fill: none;
      }

      .cls-2 {
        clip-path: url(#clip-path);
      }

      .cls-3, .cls-4 {
        fill: #fff;
      }

      .cls-4 {
        fill-rule: evenodd;
      }
    </style>
    <clipPath id="clip-path" transform="translate(-6.4253)">
      <rect class="cls-1" y="0.0005" width="267" height="111"/>
    </clipPath>
  </defs>
  <title>White</title>
  <g id="Layer_2" data-name="Layer 2">
    <g id="Layer_1-2" data-name="Layer 1">
      <g class="cls-2">
        <path class="cls-3" d="M23.9756,21.4116a3.3052,3.3052,0,0,0-1.3359.292,3.1581,3.1581,0,0,0-.9678.6729,3.2444,3.2444,0,0,0-.5,3.8945,3.2121,3.2121,0,0,0,.2881.4238,3.274,3.274,0,0,0,.2392.2657,3.0985,3.0985,0,0,0,.295.2578,3.3336,3.3336,0,0,0,.7031.416,3.2257,3.2257,0,0,0,1.2246.2637,3.2947,3.2947,0,0,0,2.0293-.67,3.2381,3.2381,0,0,0,1.2646-2.541,3.3075,3.3075,0,0,0-.208-1.1719,3.21,3.21,0,0,0-1.6191-1.78,3.2023,3.2023,0,0,0-1.2949-.3223C24.0547,21.4116,24.0157,21.4116,23.9756,21.4116ZM24.124,7.0708q.3722.003.7442.0215c.5693.0273,1.1377.085,1.7012.1689a17.43,17.43,0,0,1,4.6953,1.3955A17.5281,17.5281,0,1,1,21.91,7.1939c.5947-.0713,1.1914-.1094,1.79-.1211C23.8418,7.0708,23.9824,7.07,24.124,7.0708Z" transform="translate(-6.4253)"/>
        <path class="cls-4" d="M28.7823,6.19q.8687-.5508,1.7636-1.0567A39.7908,39.7908,0,0,1,45.6153.2525q1.3037-.1481,2.6152-.21c.4785-.0215.956-.0342,1.4336-.041q.36-.003.7187,0c.6407.0058,1.28.0244,1.92.0605A39.4355,39.4355,0,0,1,67.4121,4.01q.91.4452,1.7969.9355c.1445.08.3037.169.4473.252.2.1132.3984.2285.5937.3535.2588.166.5108.3447.753.5351a9.7143,9.7143,0,0,1-9.13,16.8467A9.4166,9.4166,0,0,1,60.6,22.39c-.2226-.1132-.4375-.2392-.6543-.3623-.0771-.0419-.1543-.0849-.23-.1269a21.0316,21.0316,0,0,0-1.98-.9463,20.0774,20.0774,0,0,0-10.542-1.3076A20.3946,20.3946,0,0,0,42.64,20.85,19.05,19.05,0,0,0,31.8848,7.2964,18.9215,18.9215,0,0,0,28.7823,6.19ZM22.3975,27.397a3.1651,3.1651,0,1,1,4.3183-1.1592A3.17,3.17,0,0,1,22.3975,27.397Zm1.5781-6.2617a3.6262,3.6262,0,0,0-1.45.3173,3.4385,3.4385,0,0,0-1.05.73,3.537,3.537,0,0,0-.23,4.6856,3.6452,3.6452,0,0,0,.26.288,3.2,3.2,0,0,0,.3193.2793,3.5759,3.5759,0,0,0,.7637.4512,3.4541,3.4541,0,0,0,1.3281.2862,3.53,3.53,0,0,0,3.4033-2.43,3.5078,3.5078,0,0,0,.1709-1.0537,3.5769,3.5769,0,0,0-.2265-1.2715,3.5045,3.5045,0,0,0-.6455-1.0869,3.5614,3.5614,0,0,0-1.11-.8448,3.4791,3.4791,0,0,0-1.4053-.35C24.0615,21.1362,24.0186,21.1353,23.9756,21.1353ZM10.418,38.0552a19.1149,19.1149,0,0,0,5.9863,4.1064,18.9571,18.9571,0,0,0,7.6465,1.5733,19.1277,19.1277,0,0,0,5.7315-.91c.0791-.0254.1582-.0517.2373-.0781.0761.51.1728,1.0176.289,1.52a20.508,20.508,0,0,0,1.3321,3.9307,20.1211,20.1211,0,0,0,5.6162,7.2744q.7455.6065,1.5478,1.1416c.291.1934.5879.3789.8887.56l.1123.0664.1387.081.3935.2422c.1279.0869.2569.1709.3819.2608.25.18.4921.3711.7236.5742a9.7132,9.7132,0,0,1-9.58,16.499,9.5628,9.5628,0,0,1-1.2715-.55c-.2783-.1455-.55-.3066-.8193-.4668-.29-.1728-.5791-.35-.8643-.5293a39.8321,39.8321,0,0,1-18.52-34.1963Q10.3951,38.6045,10.418,38.0552Z" transform="translate(-6.4253)"/>
        <path class="cls-3" d="M72.97,89.5894a3.3253,3.3253,0,0,0,1.3369-.292,3.1844,3.1844,0,0,0,.9668-.6729,3.3017,3.3017,0,0,0,.625-.9,3.2718,3.2718,0,0,0-.4131-3.4189c-.0752-.0928-.1553-.1807-.2393-.2656a2.9571,2.9571,0,0,0-.2949-.2569,3.2916,3.2916,0,0,0-.7031-.416,3.1848,3.1848,0,0,0-1.2246-.2637,3.2883,3.2883,0,0,0-2.0293.67,3.2381,3.2381,0,0,0-.8614,1.0078,3.0993,3.0993,0,0,0-.2461.5625,3.2419,3.2419,0,0,0-.1572.9707,3.2947,3.2947,0,0,0,.209,1.1719,3.2107,3.2107,0,0,0,.5947,1.0009,3.271,3.271,0,0,0,1.0235.7783,3.19,3.19,0,0,0,1.2949.3223C72.8907,89.5884,72.93,89.5894,72.97,89.5894ZM72.8213,103.93c-.248-.0029-.4961-.0088-.7441-.0215q-.8541-.0425-1.7012-.1689A17.5467,17.5467,0,0,1,56.6377,92.7944a17.5354,17.5354,0,1,1,18.3975,11.0127c-.5947.0713-1.1914.1094-1.79.1211C73.1045,103.93,72.9629,103.9312,72.8213,103.93Z" transform="translate(-6.4253)"/>
        <path class="cls-4" d="M68.1631,104.811q-.8686.5508-1.7637,1.0557A39.7964,39.7964,0,0,1,51.33,110.7485q-1.3037.148-2.6152.209c-.4776.0225-.9561.0352-1.4336.041q-.36.003-.7188.001c-.6406-.0068-1.28-.0244-1.92-.0605a39.4285,39.4285,0,0,1-15.1084-3.9483q-.9111-.4452-1.7978-.9355c-.1446-.08-.3038-.17-.4473-.252-.2-.1142-.3984-.2285-.5938-.3535-.2588-.166-.5107-.3447-.7529-.5351A9.7129,9.7129,0,0,1,36.3457,88.61c.2227.1142.4375.24.6543.3623.0772.0429.1543.0859.23.1279a21.0115,21.0115,0,0,0,1.98.9453A20.0627,20.0627,0,0,0,49.753,91.354a20.4357,20.4357,0,0,0,4.5527-1.2031,19.0491,19.0491,0,0,0,10.7549,13.5537A19.0114,19.0114,0,0,0,68.1631,104.811Zm6.3838-21.207A3.1649,3.1649,0,1,1,70.23,84.7632,3.17,3.17,0,0,1,74.5469,83.604ZM72.97,89.8648a3.6056,3.6056,0,0,0,1.45-.3164,3.4424,3.4424,0,0,0,1.05-.7305,3.5219,3.5219,0,0,0,.5429-4.2246,3.5255,3.5255,0,0,0-.3135-.4619,3.4454,3.4454,0,0,0-.26-.2872,3.2015,3.2015,0,0,0-.3194-.2792,3.5728,3.5728,0,0,0-.7636-.4512,3.4546,3.4546,0,0,0-1.3282-.2862,3.57,3.57,0,0,0-2.2021.7266,3.5145,3.5145,0,0,0-1.3721,2.7568,3.5992,3.5992,0,0,0,.2266,1.2715,3.5045,3.5045,0,0,0,.6455,1.0869,3.5621,3.5621,0,0,0,1.11.8448,3.4779,3.4779,0,0,0,1.4053.3486C72.8838,89.8648,72.9268,89.8648,72.97,89.8648Zm13.5576-16.919a19.1257,19.1257,0,0,0-5.9864-4.1064,18.9463,18.9463,0,0,0-7.6464-1.5733,19.1272,19.1272,0,0,0-5.7315.91c-.0791.0254-.1582.0508-.2363.0771q-.1158-.7645-.29-1.5195a20.59,20.59,0,0,0-1.331-3.9307,20.356,20.356,0,0,0-1.8906-3.2881A20.0691,20.0691,0,0,0,59.69,55.53q-.7471-.608-1.5488-1.1416c-.2911-.1943-.5879-.38-.8887-.56l-.1123-.0674-.1387-.08-.3936-.2422c-.1269-.0869-.2568-.1709-.3818-.2608-.25-.18-.4922-.3711-.7236-.5742a9.7136,9.7136,0,0,1,9.58-16.5,9.8844,9.8844,0,0,1,1.2714.55c.2784.1455.55.3067.8194.4678q.4365.2592.8642.53A39.83,39.83,0,0,1,86.5576,71.8472Q86.55,72.3965,86.5274,72.9458Z" transform="translate(-6.4253)"/>
        <path class="cls-3" d="M119.8936,14.8452a3.5737,3.5737,0,0,0-1.33,2.9024,3.2809,3.2809,0,0,0,1.626,2.873q1.626,1.0665,7.51,2.5176a21.1365,21.1365,0,0,1,9.1368,4.3545q3.2518,2.9033,3.2529,8.4717a11.1887,11.1887,0,0,1-4.17,9.0341q-4.169,3.4659-10.9688,3.4659-9.8174,0-17.6816-7.2862l5.499-6.7539Q119.45,40.29,125.127,40.29a6.4838,6.4838,0,0,0,3.9922-1.0967,3.5191,3.5191,0,0,0,1.4482-2.9619,3.454,3.454,0,0,0-1.5371-2.9619,20.0332,20.0332,0,0,0-6.0918-2.2217q-7.2144-1.7182-10.5557-4.4727-3.34-2.7553-3.3408-8.6494a10.7277,10.7277,0,0,1,4.2285-9.0937,16.9909,16.9909,0,0,1,10.5557-3.1993,25.365,25.365,0,0,1,8.2793,1.4219,22.1674,22.1674,0,0,1,7.2148,4.0293l-4.6728,6.7529A18.1813,18.1813,0,0,0,123.53,13.7485,5.5561,5.5561,0,0,0,119.8936,14.8452Z" transform="translate(-6.4253)"/>
        <path class="cls-3" d="M206.9766,38.4234a7.1661,7.1661,0,0,0,5.3818,2.458,6.7179,6.7179,0,0,0,5.2334-2.458,9.2563,9.2563,0,0,0,2.1592-6.3389,9.7109,9.7109,0,0,0-2.1592-6.458,6.6542,6.6542,0,0,0-5.292-2.5772,6.8786,6.8786,0,0,0-5.3818,2.6074,9.54,9.54,0,0,0-2.2471,6.4571A8.8552,8.8552,0,0,0,206.9766,38.4234Zm-6.8,5.2421a16.8761,16.8761,0,0,1-4.4356-11.9072,16.1909,16.1909,0,0,1,4.3164-11.6416A13.5431,13.5431,0,0,1,210.17,15.5855a12.131,12.131,0,0,1,9.4629,4.0869V4.0327h8.87V47.99h-8.87V43.7837a11.5062,11.5062,0,0,1-9.374,4.6807Q204.6119,48.4644,200.1768,43.6655Z" transform="translate(-6.4253)"/>
        <path class="cls-4" d="M241.7266,52.3726c.0469.0009.0937.0019.1406.0019a2.5864,2.5864,0,0,0,2.1289-1.2148,4.2918,4.2918,0,0,0,.8877-2.5772q0-1.3623-12.3008-32.4638h9.4619l7.7461,19.8457,7.7471-19.8457H267L252.2168,53.6773a10.5824,10.5824,0,0,1-4.0508,5.0654,10.9135,10.9135,0,0,1-6.1211,1.8066c-.1064,0-.2119-.0009-.3183-.0049Z" transform="translate(-6.4253)"/>
        <path class="cls-4" d="M154.169,16.1187h10.0625a6.56,6.56,0,0,1,6.5547,6.5654v10.792q0,7.3461,5.3808,7.3467A6.3531,6.3531,0,0,0,180.78,38.897a7.5238,7.5238,0,0,0,1.9512-5.5986v-17.18h8.93V47.99h-8.93V43.7837a10.0625,10.0625,0,0,1-8.545,4.6807,12.4308,12.4308,0,0,1-8.7822-3.2881q-3.5478-3.2886-3.5478-9.7451V25.438a2.9209,2.9209,0,0,0-2.916-2.9219H154.169V36.7935a4.1059,4.1059,0,0,0,.9463,2.874,2.9428,2.9428,0,0,0,2.2461,1.0361c.0664,0,.1328-.001.1982-.0039v7.6738a10.9382,10.9382,0,0,1-1.41.0909,10.6,10.6,0,0,1-10.91-11.2559V22.5161h-3.7256V16.1187h3.7256V6.5806h8.93Z" transform="translate(-6.4253)"/>
        <polygon class="cls-3" points="129.062 63.137 138.435 63.137 138.435 105.212 129.062 105.212 129.062 88.66 112.358 88.66 112.358 105.212 102.985 105.212 102.985 63.137 112.358 63.137 112.358 80.714 129.062 80.714 129.062 63.137"/>
        <path class="cls-3" d="M175.1446,90.2847V72.8286h9.0722v32.3838h-9.0722V100.939a10.2235,10.2235,0,0,1-8.6827,4.7549,12.63,12.63,0,0,1-8.9228-3.3409q-3.605-3.34-3.6055-9.9013V72.8286h9.0733V90.4653q0,7.4634,5.4677,7.4639a6.451,6.451,0,0,0,4.6866-1.956A7.643,7.643,0,0,0,175.1446,90.2847Z" transform="translate(-6.4253)"/>
        <path class="cls-3" d="M203.835,95.4917a6.8289,6.8289,0,0,0,5.3174,2.4981,7.2816,7.2816,0,0,0,5.4687-2.4981,9,9,0,0,0,2.3428-6.4111,9.6921,9.6921,0,0,0-2.2832-6.5606,6.99,6.99,0,0,0-5.4678-2.6484A6.7614,6.7614,0,0,0,203.835,82.49a9.869,9.869,0,0,0-2.1924,6.56A9.4069,9.4069,0,0,0,203.835,95.4917Zm17.8164-18.6a16.4474,16.4474,0,0,1,4.3857,11.8271,17.1543,17.1543,0,0,1-4.5058,12.1q-4.5073,4.875-10.2451,4.875a11.6878,11.6878,0,0,1-9.5235-4.7549v4.2734H192.749V60.5493h9.0137V76.44a12.323,12.323,0,0,1,9.6133-4.1534A13.7577,13.7577,0,0,1,221.6514,76.8921Z" transform="translate(-6.4253)"/>
        <path class="cls-3" d="M231.8653,100.397a5.2374,5.2374,0,1,1,1.5322,3.7617A5.124,5.124,0,0,1,231.8653,100.397Z" transform="translate(-6.4253)"/>
      </g>
    </g>
  </g>
</svg>
